<mxfile host="65bd71144e">
    <diagram id="Txf6zwCkLdo3KUsWHEu3" name="Page-1">
        <mxGraphModel dx="2804" dy="2010" grid="0" gridSize="10" guides="1" tooltips="1" connect="1" arrows="1" fold="1" page="1" pageScale="1" pageWidth="1700" pageHeight="1100" math="1" shadow="0">
            <root>
                <mxCell id="0"/>
                <mxCell id="1" parent="0"/>
                <mxCell id="5" value="" style="edgeStyle=orthogonalEdgeStyle;shape=flexArrow;html=1;fontFamily=Courier New;fontSize=20;sketch=1;curveFitting=1;jiggle=2;" parent="1" source="2" target="4" edge="1">
                    <mxGeometry relative="1" as="geometry"/>
                </mxCell>
                <mxCell id="42" style="edgeStyle=none;shape=link;hachureGap=4;html=1;fontFamily=Courier New;fontSize=16;exitX=1;exitY=0.5;exitDx=0;exitDy=0;sketch=1;curveFitting=1;jiggle=2;" parent="1" source="2" target="41" edge="1">
                    <mxGeometry relative="1" as="geometry">
                        <Array as="points">
                            <mxPoint x="1157" y="39"/>
                        </Array>
                    </mxGeometry>
                </mxCell>
                <mxCell id="2" value="&lt;font style=&quot;font-size: 20px;&quot;&gt;&lt;b&gt;main.c&lt;/b&gt;&lt;/font&gt;" style="whiteSpace=wrap;html=1;rounded=1;sketch=1;curveFitting=1;jiggle=2;" parent="1" vertex="1">
                    <mxGeometry x="767.5" y="4" width="155" height="70" as="geometry"/>
                </mxCell>
                <mxCell id="9" value="" style="edgeStyle=orthogonalEdgeStyle;shape=flexArrow;html=1;fontFamily=Courier New;fontSize=20;sketch=1;curveFitting=1;jiggle=2;" parent="1" source="4" target="8" edge="1">
                    <mxGeometry relative="1" as="geometry"/>
                </mxCell>
                <mxCell id="4" value="&lt;b&gt;&lt;font style=&quot;font-size: 23px;&quot;&gt;assembler(FILE_NAME)&lt;/font&gt;&lt;/b&gt;" style="whiteSpace=wrap;html=1;rounded=1;sketch=1;curveFitting=1;jiggle=2;" parent="1" vertex="1">
                    <mxGeometry x="704.5" y="184" width="280" height="115" as="geometry"/>
                </mxCell>
                <mxCell id="11" value="" style="edgeStyle=orthogonalEdgeStyle;shape=flexArrow;html=1;fontFamily=Courier New;fontSize=20;sketch=1;curveFitting=1;jiggle=2;exitX=0.5;exitY=1;exitDx=0;exitDy=0;endWidth=32;endSize=2.38;entryX=0.5;entryY=0;entryDx=0;entryDy=0;" parent="1" source="8" target="10" edge="1">
                    <mxGeometry relative="1" as="geometry">
                        <mxPoint x="441.2631578947369" y="356" as="targetPoint"/>
                        <Array as="points">
                            <mxPoint x="434" y="238"/>
                            <mxPoint x="434" y="312"/>
                        </Array>
                    </mxGeometry>
                </mxCell>
                <mxCell id="8" value="&lt;font style=&quot;font-size: 22px;&quot;&gt;first_parse.c&lt;br&gt;using&lt;br&gt;macro parse&lt;/font&gt;" style="ellipse;whiteSpace=wrap;html=1;rounded=1;sketch=1;curveFitting=1;jiggle=2;" parent="1" vertex="1">
                    <mxGeometry x="305" y="82" width="162.5" height="156" as="geometry"/>
                </mxCell>
                <mxCell id="40" style="edgeStyle=none;hachureGap=4;html=1;entryX=-0.006;entryY=0.524;entryDx=0;entryDy=0;entryPerimeter=0;fontFamily=Courier New;fontSize=16;shape=arrow;sketch=1;curveFitting=1;jiggle=2;" parent="1" source="10" target="13" edge="1">
                    <mxGeometry relative="1" as="geometry"/>
                </mxCell>
                <mxCell id="10" value="&lt;font style=&quot;font-size: 23px;&quot;&gt;output's the parsed macro file&amp;nbsp;&lt;br&gt;&lt;br&gt;filename.am&lt;/font&gt;" style="shape=trapezoid;perimeter=trapezoidPerimeter;whiteSpace=wrap;html=1;fixedSize=1;rounded=1;sketch=1;curveFitting=1;jiggle=2;" parent="1" vertex="1">
                    <mxGeometry x="274" y="312" width="233" height="159" as="geometry"/>
                </mxCell>
                <mxCell id="15" style="edgeStyle=orthogonalEdgeStyle;shape=flexArrow;html=1;fontFamily=Courier New;fontSize=20;sketch=1;curveFitting=1;jiggle=2;" parent="1" source="13" edge="1">
                    <mxGeometry relative="1" as="geometry">
                        <mxPoint x="847.5" y="624" as="targetPoint"/>
                    </mxGeometry>
                </mxCell>
                <mxCell id="13" value="stage 1&lt;br&gt;&lt;br&gt;create's the symTable" style="whiteSpace=wrap;html=1;fontFamily=Courier New;fontSize=20;rounded=1;sketch=1;curveFitting=1;jiggle=2;" parent="1" vertex="1">
                    <mxGeometry x="722.5" y="354" width="245" height="140" as="geometry"/>
                </mxCell>
                <mxCell id="23" value="" style="edgeStyle=orthogonalEdgeStyle;shape=flexArrow;html=1;fontFamily=Courier New;fontSize=20;sketch=1;curveFitting=1;jiggle=2;" parent="1" source="16" target="22" edge="1">
                    <mxGeometry relative="1" as="geometry"/>
                </mxCell>
                <mxCell id="26" value="" style="edgeStyle=orthogonalEdgeStyle;shape=flexArrow;html=1;fontFamily=Courier New;fontSize=12;sketch=1;curveFitting=1;jiggle=2;" parent="1" source="16" target="25" edge="1">
                    <mxGeometry relative="1" as="geometry"/>
                </mxCell>
                <mxCell id="29" value="" style="edgeStyle=orthogonalEdgeStyle;shape=flexArrow;html=1;fontFamily=Courier New;fontSize=12;sketch=1;curveFitting=1;jiggle=2;" parent="1" source="16" target="28" edge="1">
                    <mxGeometry relative="1" as="geometry"/>
                </mxCell>
                <mxCell id="16" value="stage 2&lt;br&gt;&lt;br&gt;create's the output files" style="whiteSpace=wrap;html=1;fontFamily=Courier New;fontSize=20;rounded=1;sketch=1;curveFitting=1;jiggle=2;" parent="1" vertex="1">
                    <mxGeometry x="759.25" y="624" width="170.5" height="110" as="geometry"/>
                </mxCell>
                <mxCell id="22" value="&lt;font style=&quot;font-size: 25px;&quot;&gt;file_name.ob&lt;/font&gt;" style="rectangle;whiteSpace=wrap;html=1;fontSize=20;fontFamily=Courier New;rounded=1;sketch=1;curveFitting=1;jiggle=2;" parent="1" vertex="1">
                    <mxGeometry x="726.25" y="940" width="236.5" height="140" as="geometry"/>
                </mxCell>
                <mxCell id="25" value="&lt;sub&gt;file_name.ext&lt;/sub&gt;" style="rhombus;whiteSpace=wrap;html=1;fontSize=20;fontFamily=Courier New;rounded=1;sketch=1;curveFitting=1;jiggle=2;" parent="1" vertex="1">
                    <mxGeometry x="653" y="816" width="155" height="100" as="geometry"/>
                </mxCell>
                <mxCell id="28" value="file_name.ent" style="rhombus;whiteSpace=wrap;html=1;fontSize=20;fontFamily=Courier New;rounded=1;sketch=1;curveFitting=1;jiggle=2;" parent="1" vertex="1">
                    <mxGeometry x="899" y="819" width="178" height="100" as="geometry"/>
                </mxCell>
                <mxCell id="36" value="" style="edgeStyle=none;hachureGap=4;html=1;fontFamily=Courier New;fontSize=16;sketch=1;curveFitting=1;jiggle=2;" parent="1" source="35" target="8" edge="1">
                    <mxGeometry relative="1" as="geometry"/>
                </mxCell>
                <mxCell id="35" value="&lt;font face=&quot;Courier New&quot;&gt;uses's the hasht_able&lt;br&gt;from &amp;lt;search.h&amp;gt;&lt;br&gt;&lt;/font&gt;" style="ellipse;whiteSpace=wrap;html=1;hachureGap=4;fontFamily=Architects Daughter;fontSource=https%3A%2F%2Ffonts.googleapis.com%2Fcss%3Ffamily%3DArchitects%2BDaughter;fontSize=20;rounded=1;sketch=1;curveFitting=1;jiggle=2;" parent="1" vertex="1">
                    <mxGeometry x="30" y="87.5" width="212" height="158" as="geometry"/>
                </mxCell>
                <mxCell id="43" style="edgeStyle=none;shape=link;hachureGap=4;html=1;entryX=1;entryY=0.5;entryDx=0;entryDy=0;fontFamily=Courier New;fontSize=16;sketch=1;curveFitting=1;jiggle=2;" parent="1" source="41" target="13" edge="1">
                    <mxGeometry relative="1" as="geometry">
                        <Array as="points"/>
                    </mxGeometry>
                </mxCell>
                <mxCell id="44" style="edgeStyle=none;shape=link;hachureGap=4;html=1;entryX=1;entryY=0.5;entryDx=0;entryDy=0;fontFamily=Courier New;fontSize=16;exitX=0.5;exitY=1;exitDx=0;exitDy=0;sketch=1;curveFitting=1;jiggle=2;" parent="1" source="41" target="16" edge="1">
                    <mxGeometry relative="1" as="geometry">
                        <mxPoint x="1234" y="207" as="sourcePoint"/>
                    </mxGeometry>
                </mxCell>
                <mxCell id="41" value="the main file create a pointer &lt;br&gt;SYMTABLEPTR manager" style="whiteSpace=wrap;html=1;hachureGap=4;fontFamily=Courier New;fontSize=20;rounded=1;sketch=1;curveFitting=1;jiggle=2;" parent="1" vertex="1">
                    <mxGeometry x="1033" y="348" width="247" height="159" as="geometry"/>
                </mxCell>
            </root>
        </mxGraphModel>
    </diagram>
</mxfile>